<?xml version="1.0" encoding="utf-8"?><!-- Uploaded to: SVG Repo, www.svgrepo.com, Generator: SVG Repo Mixer Tools -->
<svg version="1.1" id="Uploaded to svgrepo.com" xmlns="http://www.w3.org/2000/svg" xmlns:xlink="http://www.w3.org/1999/xlink" 
	 width="800px" height="800px" viewBox="0 0 32 32" xml:space="preserve">
<style type="text/css">
	.linesandangles_een{fill:#111918;}
</style>
<path class="linesandangles_een" d="M25,6H15c-2.757,0-5,2.243-5,5v3c-0.833,0-2.113,0.228-3,0.927C6.113,14.228,4.833,14,4,14H2v1
	c0,3.093,1.126,4.273,2,4.723V21c0,2.757,2.243,5,5,5h16c2.757,0,5-2.243,5-5V11C30,8.243,27.757,6,25,6z M16,24h-2
	c0-2.029,0.997-3.024,2-3.517V24z M20,24h-2v-4h2V24z M24,24h-2v-4h2V24z M28,21c0,1.302-0.839,2.402-2,2.816V20h2V21z M28,18H18
	c-2.075,0-6,1.254-6,6H9c-1.654,0-3-1.346-3-3v-2.998H5.056c-0.305-0.041-0.835-0.527-1.003-2C4.377,16.019,6,16.146,6,17h2
	c0-0.856,1.631-0.981,1.947-0.998c-0.168,1.473-0.643,1.959-0.947,2V20c0.123,0,3-0.057,3-5v-4c0-1.654,1.346-3,3-3h10
	c1.654,0,3,1.346,3,3V18z M20,14h2v2h-2V14z M24,14h2v2h-2V14z"/>
</svg>